<svg xmlns="http://www.w3.org/2000/svg" xmlns:xlink="http://www.w3.org/1999/xlink" width="193" height="193" version="1.1" viewBox="0 0 193 193"><title>clock</title><desc>Created with Sketch Beta.</desc><defs><ellipse id="path-1" cx="49.587" cy="49.286" rx="48.538" ry="48.629"/><ellipse id="path-3" cx="49.587" cy="49.286" rx="48.538" ry="48.629"/><ellipse id="path-5" cx="49.587" cy="49.286" rx="48.538" ry="48.629"/><ellipse id="path-7" cx="49.587" cy="49.286" rx="48.538" ry="48.629"/><ellipse id="path-9" cx="49.587" cy="49.286" rx="48.538" ry="48.629"/><ellipse id="path-11" cx="49.587" cy="49.286" rx="48.538" ry="48.629"/><ellipse id="path-13" cx="49.587" cy="49.286" rx="48.538" ry="48.629"/><ellipse id="path-15" cx="49.587" cy="49.286" rx="48.538" ry="48.629"/><ellipse id="path-17" cx="49.587" cy="49.286" rx="48.538" ry="48.629"/><ellipse id="path-19" cx="49.587" cy="49.286" rx="48.538" ry="48.629"/><ellipse id="path-21" cx="48.587" cy="49.286" rx="48.538" ry="48.629"/></defs><g id="Page-1" fill="none" fill-rule="evenodd" stroke="none" stroke-width="1"><g id="WINNER" transform="translate(-991.000000, -3460.000000)"><g id="Group-+-super-icons" transform="translate(194.000000, 3302.000000)"><g id="super-icons" transform="translate(65.000000, 158.000000)"><g id="clock" transform="translate(732.000000, 0.000000)"><rect id="Rectangle-21" width="193" height="193" x="0" y="0" fill="#FFF"/><ellipse id="XMLID_126_" cx="90.394" cy="28.943" stroke="#1485E0" stroke-width="2" rx="26.237" ry="26.286"/><rect id="XMLID_125_" width="10.495" height="15.771" x="85.409" y="53.257" fill="#FFF" stroke="#1485E0" stroke-width="2"/><ellipse id="XMLID_124_" cx="90.394" cy="124.886" fill="#C4E1F7" stroke="#1485E0" stroke-width="4.182" rx="60.344" ry="60.457"/><g id="XMLID_679_" transform="translate(40.806452, 75.600000)"><g id="XMLID_123_-Clipped"><mask id="mask-2" fill="#fff"><use xlink:href="#path-1"/></mask><ellipse id="XMLID_123_" cx="49.587" cy="49.286" fill="#FFF" stroke="#1485E0" stroke-width="2" mask="url(#mask-2)" rx="47.226" ry="47.314"/></g><g id="XMLID_122_-Clipped"><mask id="mask-4" fill="#fff"><use xlink:href="#path-3"/></mask><ellipse id="XMLID_122_" cx="49.587" cy="49.286" fill="#FFF" stroke="#FFF" mask="url(#mask-4)" rx="34.108" ry="34.171"/></g><g id="XMLID_121_-Clipped"><mask id="mask-6" fill="#fff"><use xlink:href="#path-5"/></mask></g><g id="XMLID_120_-Clipped"><mask id="mask-8" fill="#fff"><use xlink:href="#path-7"/></mask><path id="XMLID_120_" stroke="#1485E0" stroke-width="2" d="M49.5870968,49.2857143 L28.5978495,28.2571429" mask="url(#mask-8)"/></g><g id="XMLID_119_-Clipped"><mask id="mask-10" fill="#fff"><use xlink:href="#path-9"/></mask><path id="XMLID_119_" stroke="#1485E0" stroke-width="2" d="M49.8494624,49.9428571 L80.0215054,49.9428571" mask="url(#mask-10)"/></g><g id="XMLID_118_-Clipped"><mask id="mask-12" fill="#fff"><use xlink:href="#path-11"/></mask><path id="XMLID_118_" stroke="#1485E0" stroke-width="2" d="M65.3290323,34.8285714 L49.5870968,49.2857143" mask="url(#mask-12)"/></g><g id="XMLID_117_-Clipped"><mask id="mask-14" fill="#fff"><use xlink:href="#path-13"/></mask></g><g id="XMLID_116_-Clipped"><mask id="mask-16" fill="#fff"><use xlink:href="#path-15"/></mask><ellipse id="XMLID_116_" cx="49.587" cy="49.286" fill="#FFF" stroke="#1485E0" stroke-width="2" mask="url(#mask-16)" rx="3.935" ry="3.943"/></g><g id="XMLID_741_-Clipped"><mask id="mask-18" fill="#fff"><use xlink:href="#path-17"/></mask></g><g id="lignes_time_2_-Clipped"><mask id="mask-20" fill="#fff"><use xlink:href="#path-19"/></mask><g id="lignes_time_2_" stroke="#1485E0" mask="url(#mask-20)"><g transform="translate(5.247312, 5.257143)"><path id="XMLID_111_" d="M44.3397849,12.4857143 L44.3397849,0.657142857"/><path id="XMLID_110_" d="M40.4043011,6.17714286 L39.8795699,0.92"/><path id="XMLID_109_" d="M36.4688172,6.70285714 L35.4193548,1.57714286"/><path id="XMLID_108_" d="M32.6645161,7.75428571 L30.9591398,2.76"/><path id="XMLID_107_" d="M28.8602151,9.2 L26.7612903,4.46857143"/><path id="XMLID_106_" d="M25.3182796,11.04 L22.6946237,6.44"/><path id="XMLID_105_" d="M22.0387097,13.1428571 L18.8903226,8.93714286"/><path id="XMLID_104_" d="M18.8903226,15.64 L15.4795699,11.8285714"/><path id="XMLID_103_" d="M16.1354839,18.5314286 L12.2,14.9828571"/><path id="XMLID_102_" d="M13.6430108,21.6857143 L9.31397849,18.5314286"/><path id="XMLID_101_" d="M11.4129032,24.9714286 L6.95268817,22.3428571"/><path id="XMLID_100_" d="M9.70752688,28.52 L4.85376344,26.4171429"/><path id="XMLID_99_" d="M8.26451613,32.2 L3.27956989,30.6228571"/><path id="XMLID_98_" d="M7.21505376,36.1428571 L2.09892473,34.96"/><path id="XMLID_97_" d="M6.55913978,40.0857143 L1.31182796,39.56"/><path id="XMLID_96_" d="M12.855914,44.0285714 L1.04946237,44.0285714"/><path id="XMLID_95_" d="M6.55913978,47.9714286 L1.31182796,48.4971429"/><path id="XMLID_94_" d="M7.21505376,51.9142857 L2.09892473,53.0971429"/><path id="XMLID_93_" d="M8.26451613,55.8571429 L3.27956989,57.4342857"/><path id="XMLID_92_" d="M9.70752688,59.5371429 L4.85376344,61.64"/><path id="XMLID_91_" d="M11.4129032,63.0857143 L6.95268817,65.7142857"/><path id="XMLID_90_" d="M13.6430108,66.3714286 L9.31397849,69.5257143"/><path id="XMLID_89_" d="M16.1354839,69.5257143 L12.2,73.0742857"/><path id="XMLID_88_" d="M18.8903226,72.4171429 L15.4795699,76.2285714"/><path id="XMLID_87_" d="M22.0387097,74.9142857 L18.8903226,79.12"/><path id="XMLID_86_" d="M25.3182796,77.0171429 L22.6946237,81.6171429"/><path id="XMLID_85_" d="M28.8602151,78.8571429 L26.7612903,83.5885714"/><path id="XMLID_84_" d="M32.6645161,80.3028571 L30.9591398,85.2971429"/><path id="XMLID_83_" d="M36.4688172,81.3542857 L35.4193548,86.48"/><path id="XMLID_82_" d="M40.4043011,81.88 L39.8795699,87.1371429"/><path id="XMLID_81_" d="M44.3397849,75.5714286 L44.3397849,87.4"/><path id="XMLID_80_" d="M48.4064516,81.88 L48.9311828,87.1371429"/><path id="XMLID_79_" d="M52.3419355,81.3542857 L53.3913978,86.48"/><path id="XMLID_78_" d="M56.1462366,80.3028571 L57.7204301,85.2971429"/><path id="XMLID_77_" d="M59.8193548,78.8571429 L62.0494624,83.5885714"/><path id="XMLID_76_" d="M63.3612903,77.0171429 L65.9849462,81.6171429"/><path id="XMLID_75_" d="M66.772043,74.9142857 L69.7892473,79.12"/><path id="XMLID_74_" d="M69.7892473,72.4171429 L73.3311828,76.2285714"/><path id="XMLID_73_" d="M72.6752688,69.5257143 L76.6107527,73.0742857"/><path id="XMLID_72_" d="M75.1677419,66.3714286 L79.3655914,69.5257143"/><path id="XMLID_71_" d="M77.3978495,63.0857143 L81.8580645,65.7142857"/><path id="XMLID_70_" d="M79.1032258,59.5371429 L83.9569892,61.64"/><path id="XMLID_69_" d="M80.5462366,55.8571429 L85.5311828,57.4342857"/><path id="XMLID_68_" d="M81.5956989,51.9142857 L86.711828,53.0971429"/><path id="XMLID_67_" d="M82.2516129,47.9714286 L87.4989247,48.4971429"/><path id="XMLID_66_" d="M75.8236559,44.0285714 L87.6301075,44.0285714"/><path id="XMLID_65_" d="M82.2516129,40.0857143 L87.4989247,39.56"/><path id="XMLID_64_" d="M81.5956989,36.1428571 L86.711828,34.96"/><path id="XMLID_63_" d="M80.5462366,32.2 L85.5311828,30.6228571"/><path id="XMLID_62_" d="M79.1032258,28.52 L83.9569892,26.4171429"/><path id="XMLID_61_" d="M77.3978495,24.9714286 L81.8580645,22.3428571"/><path id="XMLID_60_" d="M75.1677419,21.6857143 L79.3655914,18.5314286"/><path id="XMLID_59_" d="M72.6752688,18.5314286 L76.6107527,14.9828571"/><path id="XMLID_58_" d="M69.7892473,15.64 L73.3311828,11.8285714"/><path id="XMLID_57_" d="M66.772043,13.1428571 L69.7892473,8.93714286"/><path id="XMLID_56_" d="M63.3612903,11.04 L65.9849462,6.44"/><path id="XMLID_55_" d="M59.8193548,9.2 L62.0494624,4.46857143"/><path id="XMLID_54_" d="M56.1462366,7.75428571 L57.7204301,2.76"/><path id="XMLID_53_" d="M52.3419355,6.70285714 L53.3913978,1.57714286"/><path id="XMLID_52_" d="M48.4064516,6.17714286 L48.9311828,0.92"/></g></g></g><g id="light_1_-Clipped" transform="translate(1.000000, 0.000000)"><mask id="mask-22" fill="#fff"><use xlink:href="#path-21"/></mask><path id="light_1_" fill="#FFF" d="M7.92043011,161.657143 L-147.924731,161.657143 L-147.924731,-67.0285714 L91.8774194,-67.0285714 L7.92043011,161.657143 Z" mask="url(#mask-22)" opacity=".44"/></g></g><g id="XMLID_675_" stroke="#1485E0" transform="translate(73.602151, 36.171429)"><path id="XMLID_50_" fill="#FFF" stroke-width="4" d="M29.1225806,0 L6.0344086,0 C3.0172043,0 0.131182796,0.525714286 0.131182796,3.68 L0.131182796,18.4 L34.2387097,18.4 L34.2387097,3.68 C34.1075269,0.525714286 32.1397849,0 29.1225806,0 L29.1225806,0 Z"/><path id="XMLID_49_" stroke-dasharray="2 2" stroke-width="2" d="M4.98494624,5.91428571 L33.8451613,5.91428571"/><path id="XMLID_48_" stroke-dasharray="2 2" stroke-width="2" d="M4.98494624,11.1714286 L33.8451613,11.1714286"/></g></g></g></g></g></g></svg>