<svg xmlns="http://www.w3.org/2000/svg" xmlns:xlink="http://www.w3.org/1999/xlink" width="193" height="193" version="1.1" viewBox="0 0 193 193"><title>https_window</title><desc>Created with Sketch Beta.</desc><defs><path id="path-1" d="M0,0 L185,0 L185,139 L0,139 L0,0 L0,0 Z"/><path id="path-3" d="M180.605364,0.354591837 L2.69348659,0.354591837 C1.48850575,0.354591837 0.567049808,1.27653061 0.567049808,2.48214286 L0.567049808,14.5382653 L182.731801,14.5382653 L182.731801,2.48214286 C182.731801,1.27653061 181.810345,0.354591837 180.605364,0.354591837 L180.605364,0.354591837 Z"/><path id="path-5" d="M56.8467433,0.283673469 L20.9808429,36.1683673 L6.73371648,21.9137755 L0.496168582,28.1545918 L20.9808429,48.65 L63.1551724,6.5244898 L56.8467433,0.283673469 L56.8467433,0.283673469 Z"/><path id="path-7" d="M4.72163815e-16,123.752551 L4.72163815e-16,0.354591837 L129.570881,0.354591837 L84.2068966,123.752551 L0,123.752551 L4.72163815e-16,123.752551 L4.72163815e-16,123.752551 Z"/><path id="path-9" d="M0,0 L182.164751,0 L0,0 L0,0 Z"/><path id="path-11" d="M2.19731801,4.60969388 C3.3717136,4.60969388 4.32375479,3.65718929 4.32375479,2.48214286 C4.32375479,1.30709643 3.3717136,0.354591837 2.19731801,0.354591837 C1.02292241,0.354591837 0.0708812261,1.30709643 0.0708812261,2.48214286 C0.0708812261,3.65718929 1.02292241,4.60969388 2.19731801,4.60969388 L2.19731801,4.60969388 Z"/><path id="path-13" d="M2.19731801,4.60969388 C3.3717136,4.60969388 4.32375479,3.65718929 4.32375479,2.48214286 C4.32375479,1.30709643 3.3717136,0.354591837 2.19731801,0.354591837 C1.02292241,0.354591837 0.0708812261,1.30709643 0.0708812261,2.48214286 C0.0708812261,3.65718929 1.02292241,4.60969388 2.19731801,4.60969388 L2.19731801,4.60969388 Z"/><path id="path-15" d="M2.19731801,4.60969388 C3.3717136,4.60969388 4.32375479,3.65718929 4.32375479,2.48214286 C4.32375479,1.30709643 3.3717136,0.354591837 2.19731801,0.354591837 C1.02292241,0.354591837 0.0708812261,1.30709643 0.0708812261,2.48214286 C0.0708812261,3.65718929 1.02292241,4.60969388 2.19731801,4.60969388 L2.19731801,4.60969388 Z"/></defs><g id="Page-1" fill="none" fill-rule="evenodd" stroke="none" stroke-width="1"><g id="WINNER" transform="translate(-986.000000, -3780.000000)"><g id="Group-+-super-icons" transform="translate(194.000000, 3302.000000)"><g id="super-icons" transform="translate(65.000000, 158.000000)"><g id="https_window" transform="translate(727.000000, 320.000000)"><rect id="Rectangle-21" width="193" height="193" x="0" y="0" fill="#FFF"/><g id="Group-3" transform="translate(4.000000, 29.000000)"><mask id="mask-2" fill="#fff"><use xlink:href="#path-1"/></mask><path id="Fill-1" fill="#C4E1F7" d="M-3.5440613,-3.54591837 L188.544061,-3.54591837 L188.544061,142.545918 L-3.5440613,142.545918 L-3.5440613,-3.54591837 Z" mask="url(#mask-2)"/></g><g id="Group-6" transform="translate(4.708812, 29.709184)"><mask id="mask-4" fill="#fff"><use xlink:href="#path-3"/></mask><path id="Fill-4" fill="#FFF" d="M-2.97701149,-3.19132653 L186.275862,-3.19132653 L186.275862,18.0841837 L-2.97701149,18.0841837 L-2.97701149,-3.19132653 Z" mask="url(#mask-4)"/></g><g id="Group-9" transform="translate(66.375479, 74.387755)"><mask id="mask-6" fill="#fff"><use xlink:href="#path-5"/></mask><path id="Fill-7" fill="#1485E0" d="M-3.04789272,-3.2622449 L66.6992337,-3.2622449 L66.6992337,52.1959184 L-3.04789272,52.1959184 L-3.04789272,-3.2622449 Z" mask="url(#mask-6)"/></g><g id="Group-12" transform="translate(4.000000, 43.892857)"><mask id="mask-8" fill="#fff"><use xlink:href="#path-7"/></mask><path id="Fill-10" fill="#FFF" fill-opacity=".44" d="M-3.68582375,-3.19132653 L133.114943,-3.19132653 L133.114943,127.298469 L-3.68582375,127.298469 L-3.68582375,-3.19132653 Z" mask="url(#mask-8)"/></g><g id="Group-18" transform="translate(5.417625, 43.892857)"><g id="Group-15"><mask id="mask-10" fill="#fff"><use xlink:href="#path-9"/></mask><path id="Fill-13" fill="#C4E1F7" d="M-3.5440613,-3.54591837 L185.708812,-3.54591837 L185.708812,3.54591837 L-3.5440613,3.54591837 L-3.5440613,-3.54591837 Z" mask="url(#mask-10)"/></g><path id="Stroke-16" stroke="#1485E0" stroke-width="2" d="M0,0 L182.164751,0"/></g><g id="Group-34" transform="translate(11.796935, 33.964286)"><g id="Group-21"><mask id="mask-12" fill="#fff"><use xlink:href="#path-11"/></mask><path id="Fill-19" fill="#FFF" d="M-3.47318008,-3.19132653 L7.86781609,-3.19132653 L7.86781609,8.15561224 L-3.47318008,8.15561224 L-3.47318008,-3.19132653 Z" mask="url(#mask-12)"/></g><path id="Stroke-22" stroke="#1485E0" stroke-width="2" d="M2.19731801,4.60969388 C3.37171644,4.60969388 4.32375479,3.65715666 4.32375479,2.48214286 C4.32375479,1.30712905 3.37171644,0.354591837 2.19731801,0.354591837 C1.02291958,0.354591837 0.0708812261,1.30712905 0.0708812261,2.48214286 C0.0708812261,3.65715666 1.02291958,4.60969388 2.19731801,4.60969388 L2.19731801,4.60969388 Z"/><g id="Group-26" transform="translate(7.796935, 0.000000)"><mask id="mask-14" fill="#fff"><use xlink:href="#path-13"/></mask><path id="Fill-24" fill="#FFF" d="M-3.47318008,-3.19132653 L7.86781609,-3.19132653 L7.86781609,8.15561224 L-3.47318008,8.15561224 L-3.47318008,-3.19132653 Z" mask="url(#mask-14)"/></g><path id="Stroke-27" stroke="#1485E0" stroke-width="2" d="M9.99425287,4.60969388 C11.1686513,4.60969388 12.1206897,3.65715666 12.1206897,2.48214286 C12.1206897,1.30712905 11.1686513,0.354591837 9.99425287,0.354591837 C8.81985444,0.354591837 7.86781609,1.30712905 7.86781609,2.48214286 C7.86781609,3.65715666 8.81985444,4.60969388 9.99425287,4.60969388 L9.99425287,4.60969388 Z"/><g id="Group-31" transform="translate(15.593870, 0.000000)"><mask id="mask-16" fill="#fff"><use xlink:href="#path-15"/></mask><path id="Fill-29" fill="#FFF" d="M-3.47318008,-3.19132653 L7.86781609,-3.19132653 L7.86781609,8.15561224 L-3.47318008,8.15561224 L-3.47318008,-3.19132653 Z" mask="url(#mask-16)"/></g><path id="Stroke-32" stroke="#1485E0" stroke-width="2" d="M17.7911877,4.60969388 C18.9655862,4.60969388 19.9176245,3.65715666 19.9176245,2.48214286 C19.9176245,1.30712905 18.9655862,0.354591837 17.7911877,0.354591837 C16.6167893,0.354591837 15.664751,1.30712905 15.664751,2.48214286 C15.664751,3.65715666 16.6167893,4.60969388 17.7911877,4.60969388 L17.7911877,4.60969388 Z"/></g><path id="Stroke-35" stroke="#1485E0" stroke-width="4" d="M4,29 L189,29 L189,168 L4,168 L4,29 L4,29 Z"/></g></g></g></g></g></svg>