<svg xmlns="http://www.w3.org/2000/svg" xmlns:xlink="http://www.w3.org/1999/xlink" width="1440" height="655" version="1.1" viewBox="0 0 1440 655"><title>graph</title><desc>Created with Sketch Beta.</desc><defs><linearGradient id="linearGradient-1" x1="96.928%" x2="9.579%" y1="17.809%" y2="100%"><stop offset="0%" stop-color="#4CC7FF" stop-opacity=".15"/><stop offset="100%" stop-color="#2595FF" stop-opacity=".15"/></linearGradient></defs><g id="Page-1" fill="none" fill-rule="evenodd" stroke="none" stroke-width="1"><g id="WINNER" transform="translate(0.000000, -177.000000)"><g id="header" transform="translate(-36.000000, -166.000000)"><g id="backgroun" transform="translate(9.000000, 157.000000)"><g id="graph"><g transform="translate(-83.000000, 3.000000) translate(110.000000, 184.000000)"><path id="Path-539" fill="url(#linearGradient-1)" d="M0,583 C0,583 96.7695313,469.421875 184.878906,473.9375 C272.988281,478.453125 335.605469,545.191402 401.21875,545.191406 C466.832031,545.191411 537.488281,431.839843 612.132812,431.839844 C686.777344,431.839844 763.753906,535.441406 819.679687,516.117188 C875.605469,496.792969 964.378906,370.460938 986.769531,327.941406 C1009.16016,285.421875 1110.4375,160.890625 1239.97266,133.140625 C1369.50781,105.390625 1422.32812,49.4238283 1440,5.68434189e-14 L1440,654.000003 L0,654 L0,583 Z"/><path id="Path-539" stroke="#2595FF" stroke-width="3" d="M0,583 C0,583 96.7695313,469.421875 184.878906,473.9375 C272.988281,478.453125 335.605469,545.191402 401.21875,545.191406 C466.832031,545.191411 537.488281,431.839843 612.132812,431.839844 C686.777344,431.839844 763.753906,535.441406 819.679688,516.117188 C875.605469,496.792969 964.378906,370.460938 986.769531,327.941406 C1009.16016,285.421875 1110.4375,160.890625 1239.97266,133.140625 C1369.50781,105.390625 1422.32812,50.0332031 1440,0"/><g id="graph-dots" stroke="#2595FF" stroke-width="2" transform="translate(167.000000, 116.000000)"><circle id="Oval-60" cx="8" cy="357" r="8" fill="#2A689A"/><circle id="Oval-60" cx="237" cy="428" r="8" fill="#2E6F9D"/><circle id="Oval-60" cx="440" cy="315" r="8" fill="#3275A2"/><circle id="Oval-60" cx="639" cy="403" r="8" fill="#32749A"/><circle id="Oval-60" cx="831" cy="193" r="8" fill="#347FAA"/><circle id="Oval-60" cx="1110" cy="8" r="8" fill="#34789C"/></g></g></g></g></g></g></g></svg>